<?xml version="1.0" standalone="no"?>
<!DOCTYPE svg PUBLIC "-//W3C//DTD SVG 20010904//EN"
 "http://www.w3.org/TR/2001/REC-SVG-20010904/DTD/svg10.dtd">
<svg version="1.0" xmlns="http://www.w3.org/2000/svg"
 width="220.000000pt" height="220.000000pt" viewBox="0 0 220.000000 220.000000"
 preserveAspectRatio="xMidYMid meet">
<metadata>
Created by potrace 1.15, written by Peter Selinger 2001-2017
</metadata>
<g transform="translate(0.000000,220.000000) scale(0.100000,-0.100000)"
fill="#000000" stroke="none">
<path d="M960 2188 c0 -8 20 -34 45 -58 25 -24 45 -47 45 -51 0 -7 -187 -35
-210 -31 -44 8 -116 0 -132 -15 -19 -17 -26 -16 -255 65 -7 2 -13 -2 -13 -10
0 -7 57 -58 126 -113 69 -55 121 -101 115 -103 -6 -2 -11 -19 -11 -38 l0 -34
55 0 c37 0 55 -4 56 -12 0 -7 2 -23 5 -35 4 -24 -11 -40 -21 -23 -3 5 -26 10
-50 10 -52 0 -75 -24 -75 -81 0 -61 -11 -99 -29 -99 -9 0 -36 14 -61 30 -105
70 -175 16 -130 -101 23 -62 25 -89 8 -89 -7 0 -35 7 -62 15 -130 40 -174 -14
-100 -122 20 -29 33 -57 29 -63 -3 -5 -32 -10 -63 -10 -72 0 -126 -25 -130
-60 -3 -34 31 -86 73 -111 46 -28 45 -53 -2 -72 -21 -8 -51 -29 -67 -46 l-30
-31 16 -113 c33 -233 99 -367 258 -528 97 -97 113 -109 220 -161 164 -80 221
-93 410 -93 134 0 165 4 230 24 252 78 448 241 564 468 44 89 74 193 92 326
16 121 16 128 -1 147 -17 18 -47 31 -107 44 -38 9 -37 41 1 61 36 18 81 75 81
101 -1 43 -31 60 -128 69 -78 8 -85 16 -53 56 42 54 53 89 40 121 -22 54 -57
54 -183 3 -17 -7 -18 -5 -12 26 3 19 9 62 12 95 6 59 5 63 -20 79 -33 22 -63
15 -116 -30 -23 -19 -50 -35 -61 -35 -16 0 -19 7 -19 50 0 94 -48 158 -98 131
-30 -16 -32 -15 -32 24 0 35 0 35 45 35 45 0 45 0 45 35 l0 35 -114 0 c-106 0
-115 2 -121 20 -3 11 -4 24 -1 28 3 5 45 14 93 21 48 7 111 16 138 21 28 4 85
14 128 21 47 7 77 17 77 24 0 7 -107 52 -237 100 -131 48 -244 90 -250 92 -7
3 -13 -1 -13 -9z m263 -109 c92 -34 167 -65 167 -69 0 -6 -59 -16 -345 -55
-55 -8 -153 -23 -219 -34 -65 -12 -124 -18 -130 -14 -32 19 -165 127 -162 131
3 2 41 -8 84 -23 l80 -27 30 22 c26 19 39 22 77 17 39 -6 291 25 302 37 2 1
-18 22 -44 46 -55 50 -62 51 160 -31z m-214 -338 c10 -10 24 -41 30 -69 7 -28
21 -58 32 -67 17 -17 20 -17 44 -1 14 9 34 31 45 49 58 99 115 85 113 -28 -1
-27 3 -58 8 -67 16 -29 62 -22 113 17 88 67 122 37 93 -83 -23 -100 -8 -116
75 -77 59 27 88 31 106 13 20 -20 13 -53 -23 -104 -19 -27 -35 -57 -35 -67 0
-23 38 -37 100 -37 109 0 131 -41 58 -104 -24 -21 -49 -41 -55 -47 -17 -13
-16 -54 1 -68 7 -6 34 -14 60 -17 33 -5 52 -14 67 -32 11 -14 16 -29 12 -32
-4 -4 -67 -10 -140 -13 l-132 -6 -6 47 c-24 192 -116 348 -264 447 -103 68
-186 96 -306 102 -118 6 -190 -9 -304 -64 -93 -44 -210 -158 -259 -250 -35
-66 -72 -195 -72 -250 l0 -33 -125 0 c-78 0 -125 4 -125 10 0 6 25 22 55 37
30 15 58 35 61 45 9 28 -5 57 -34 72 -31 16 -66 53 -75 78 -9 26 30 48 88 49
110 2 131 33 76 110 -17 23 -31 55 -31 71 0 25 3 28 33 28 17 0 54 -7 81 -15
88 -27 112 3 77 93 -27 67 -27 98 0 112 21 12 44 3 125 -45 30 -18 33 -18 58
-2 23 15 26 24 26 70 0 73 8 94 37 102 40 10 58 -2 97 -60 27 -41 42 -55 60
-55 32 0 62 38 70 89 4 25 14 46 28 55 29 20 34 20 57 -3z m79 -280 c12 -7 11
-13 -2 -38 -30 -59 -96 -79 -155 -49 -28 15 -64 73 -55 88 7 11 195 10 212 -1z
m-236 -38 c-2 -16 2 -23 13 -23 12 0 15 -6 10 -19 -5 -16 -2 -18 15 -14 16 4
20 1 20 -18 0 -18 3 -20 12 -11 16 16 28 15 28 -3 0 -18 11 -19 29 -2 11 10
14 10 18 0 7 -18 23 -16 23 3 0 11 6 14 20 9 15 -5 20 -2 20 10 0 13 6 16 21
12 17 -5 20 -2 16 13 -3 13 1 21 15 25 15 5 17 10 7 21 -20 24 14 27 71 4 210
-83 359 -301 360 -526 0 -48 -5 -67 -22 -89 -40 -51 -107 -66 -206 -44 -42 9
-49 13 -45 30 3 10 9 19 14 19 4 0 13 10 19 23 10 20 10 20 -3 5 -8 -10 -17
-18 -20 -18 -3 0 -7 8 -10 18 -2 9 -4 2 -4 -16 0 -18 -3 -35 -6 -38 -3 -4 -54
6 -113 21 -92 23 -121 27 -198 22 -51 -3 -121 -14 -159 -27 -66 -21 -69 -21
-83 -3 -14 17 -15 17 -10 -2 5 -18 -1 -23 -39 -33 -62 -17 -160 -15 -195 3
-54 28 -70 60 -70 141 0 214 145 426 350 511 69 29 106 27 102 -4z m988 -575
c0 -94 -37 -232 -93 -343 -230 -464 -823 -623 -1252 -335 -140 94 -271 258
-324 407 -26 70 -61 232 -61 281 0 9 32 12 125 12 l125 0 13 -32 c21 -49 90
-108 130 -110 73 -4 129 6 262 44 199 56 298 53 502 -19 29 -10 81 -17 129
-17 73 -1 84 1 117 27 21 16 46 46 57 67 22 44 28 45 183 48 l87 2 0 -32z"/>
<path d="M1255 588 c-27 -11 -91 -35 -140 -53 l-91 -32 -164 42 c-244 62 -230
60 -230 24 0 -22 7 -34 28 -46 26 -15 28 -20 28 -84 0 -74 12 -97 66 -125 59
-30 122 -14 223 56 47 33 62 40 75 31 93 -66 169 -87 214 -58 41 27 55 97 31
159 -5 13 -2 15 14 11 28 -7 51 13 51 46 0 31 -17 51 -39 50 -9 -1 -38 -10
-66 -21z m83 -25 c-3 -24 -8 -28 -40 -31 -42 -4 -46 -11 -22 -48 20 -29 14
-87 -12 -115 -32 -36 -94 -21 -205 48 -26 16 -28 16 -77 -19 -109 -79 -161
-93 -227 -61 -40 19 -51 51 -48 141 2 44 -1 52 -16 52 -21 0 -47 27 -37 37 4
4 57 -6 119 -21 62 -16 144 -36 183 -46 l72 -17 143 53 c79 29 150 53 157 54
9 0 12 -10 10 -27z"/>
</g>
</svg>
